{
    "asset" : {
        "generator" : "Khronos glTF Blender I/O v1.7.33",
        "version" : "2.0"
    },
    "scene" : 0,
    "scenes" : [
        {
            "name" : "Scene",
            "nodes" : [
                8
            ]
        }
    ],
    "nodes" : [
        {
            "mesh" : 0,
            "name" : "Object_6"
        },
        {
            "children" : [
                0
            ],
            "name" : "node_id77_2",
            "scale" : [
                21.08050537109375,
                21.08050537109375,
                21.08050537109375
            ],
            "translation" : [
                0.0003056013665627688,
                -217.0241241455078,
                1271.6844482421875
            ]
        },
        {
            "mesh" : 1,
            "name" : "Object_8"
        },
        {
            "children" : [
                2
            ],
            "name" : "node_id79_3",
            "scale" : [
                21.08050537109375,
                21.08050537109375,
                21.08050537109375
            ],
            "translation" : [
                0.0003056013665627688,
                -217.0241241455078,
                1271.6844482421875
            ]
        },
        {
            "children" : [
                1,
                3
            ],
            "name" : "node_id81_1",
            "rotation" : [
                0,
                0.7071066498756409,
                0,
                0.70710688829422
            ],
            "scale" : [
                0.001383154303766787,
                0.001285633654333651,
                0.002018329221755266
            ],
            "translation" : [
                -2.63521409034729,
                0.04987780377268791,
                0.7346408367156982
            ]
        },
        {
            "children" : [
                4
            ],
            "name" : "root_0"
        },
        {
            "children" : [
                5
            ],
            "name" : "GLTF_SceneRootNode",
            "rotation" : [
                0.7071068286895752,
                0,
                0,
                0.7071068286895752
            ]
        },
        {
            "children" : [
                6
            ],
            "name" : "root"
        },
        {
            "children" : [
                7
            ],
            "name" : "Sketchfab_model",
            "rotation" : [
                -0.7071068286895752,
                0,
                0,
                0.7071068286895752
            ],
            "translation" : [
                0,
                0.21041339635849,
                -0.7187250852584839
            ]
        }
    ],
    "materials" : [
        {
            "alphaCutoff" : 0,
            "alphaMode" : "MASK",
            "doubleSided" : true,
            "name" : "material",
            "pbrMetallicRoughness" : {}
        },
        {
            "alphaCutoff" : 0,
            "alphaMode" : "MASK",
            "doubleSided" : true,
            "name" : "material_1",
            "pbrMetallicRoughness" : {}
        }
    ],
    "meshes" : [
        {
            "name" : "Object_0",
            "primitives" : [
                {
                    "attributes" : {
                        "POSITION" : 0,
                        "NORMAL" : 1,
                        "TEXCOORD_0" : 2,
                        "TEXCOORD_1" : 3,
                        "TEXCOORD_2" : 4
                    },
                    "indices" : 5,
                    "material" : 0
                }
            ]
        },
        {
            "name" : "Object_1",
            "primitives" : [
                {
                    "attributes" : {
                        "POSITION" : 6,
                        "NORMAL" : 7,
                        "TEXCOORD_0" : 8,
                        "TEXCOORD_1" : 9,
                        "TEXCOORD_2" : 10
                    },
                    "indices" : 11,
                    "material" : 1
                }
            ]
        }
    ],
    "accessors" : [
        {
            "bufferView" : 0,
            "componentType" : 5126,
            "count" : 5372,
            "max" : [
                6.5458173751831055,
                22.43893814086914,
                16.625476837158203
            ],
            "min" : [
                -6.5458173751831055,
                -1.8489058017730713,
                -17.154497146606445
            ],
            "type" : "VEC3"
        },
        {
            "bufferView" : 1,
            "componentType" : 5126,
            "count" : 5372,
            "type" : "VEC3"
        },
        {
            "bufferView" : 2,
            "componentType" : 5126,
            "count" : 5372,
            "type" : "VEC2"
        },
        {
            "bufferView" : 3,
            "componentType" : 5126,
            "count" : 5372,
            "type" : "VEC2"
        },
        {
            "bufferView" : 4,
            "componentType" : 5126,
            "count" : 5372,
            "type" : "VEC2"
        },
        {
            "bufferView" : 5,
            "componentType" : 5123,
            "count" : 17142,
            "type" : "SCALAR"
        },
        {
            "bufferView" : 6,
            "componentType" : 5126,
            "count" : 3360,
            "max" : [
                6.589427947998047,
                10.334320068359375,
                16.605392456054688
            ],
            "min" : [
                -6.589433670043945,
                -1.0765259265899658,
                -13.449122428894043
            ],
            "type" : "VEC3"
        },
        {
            "bufferView" : 7,
            "componentType" : 5126,
            "count" : 3360,
            "type" : "VEC3"
        },
        {
            "bufferView" : 8,
            "componentType" : 5126,
            "count" : 3360,
            "type" : "VEC2"
        },
        {
            "bufferView" : 9,
            "componentType" : 5126,
            "count" : 3360,
            "type" : "VEC2"
        },
        {
            "bufferView" : 10,
            "componentType" : 5126,
            "count" : 3360,
            "type" : "VEC2"
        },
        {
            "bufferView" : 11,
            "componentType" : 5123,
            "count" : 12855,
            "type" : "SCALAR"
        }
    ],
    "bufferViews" : [
        {
            "buffer" : 0,
            "byteLength" : 64464,
            "byteOffset" : 0
        },
        {
            "buffer" : 0,
            "byteLength" : 64464,
            "byteOffset" : 64464
        },
        {
            "buffer" : 0,
            "byteLength" : 42976,
            "byteOffset" : 128928
        },
        {
            "buffer" : 0,
            "byteLength" : 42976,
            "byteOffset" : 171904
        },
        {
            "buffer" : 0,
            "byteLength" : 42976,
            "byteOffset" : 214880
        },
        {
            "buffer" : 0,
            "byteLength" : 34284,
            "byteOffset" : 257856
        },
        {
            "buffer" : 0,
            "byteLength" : 40320,
            "byteOffset" : 292140
        },
        {
            "buffer" : 0,
            "byteLength" : 40320,
            "byteOffset" : 332460
        },
        {
            "buffer" : 0,
            "byteLength" : 26880,
            "byteOffset" : 372780
        },
        {
            "buffer" : 0,
            "byteLength" : 26880,
            "byteOffset" : 399660
        },
        {
            "buffer" : 0,
            "byteLength" : 26880,
            "byteOffset" : 426540
        },
        {
            "buffer" : 0,
            "byteLength" : 25710,
            "byteOffset" : 453420
        }
    ],
    "buffers" : [
        {
            "byteLength" : 479132,
            "uri" : "data:application/octet-stream;base64,"
        }
    ]
}
